PathFileType	4	(X/Y/Z)	/Users/itak/Documents/Research/Walk-IL/dataset/trc/00076_00006.trc
DataRate	CameraRate	NumFrames	NumMarkers	Units	OrigDataRate	OrigDataStartFrame	OrigNumFrames
100.000000	100.000000	4	53	mm	100.000000	528	704
Frame#	Time	RPSI			LPSI			L3			STRN			T10			C7			CLAV			RBAK			LBAK			LSHO			LUPA			LAEL			LAOL			LWTS			LWPS			LFRA			LIFD			LHPS			LHTS			RSHO			RUPA			RAEL			RAOL			RWTS			RWPS			RFRA			RIFD			RHTS			RHPS			RBHD			LFHD			RFHD			LBHD			LHIP			RHIP			RASI			LASI			LKNE			LTHI			LANK			LTIP			LTOE			LMT1			LMT5			LHEE			RKNE			RTHI			RANK			RTIP			RTOE			RMT1			RMT5			RHEE			
		X1	Y1	Z1	X2	Y2	Z2	X3	Y3	Z3	X4	Y4	Z4	X5	Y5	Z5	X6	Y6	Z6	X7	Y7	Z7	X8	Y8	Z8	X9	Y9	Z9	X10	Y10	Z10	X11	Y11	Z11	X12	Y12	Z12	X13	Y13	Z13	X14	Y14	Z14	X15	Y15	Z15	X16	Y16	Z16	X17	Y17	Z17	X18	Y18	Z18	X19	Y19	Z19	X20	Y20	Z20	X21	Y21	Z21	X22	Y22	Z22	X23	Y23	Z23	X24	Y24	Z24	X25	Y25	Z25	X26	Y26	Z26	X27	Y27	Z27	X28	Y28	Z28	X29	Y29	Z29	X30	Y30	Z30	X31	Y31	Z31	X32	Y32	Z32	X33	Y33	Z33	X34	Y34	Z34	X35	Y35	Z35	X36	Y36	Z36	X37	Y37	Z37	X38	Y38	Z38	X39	Y39	Z39	X40	Y40	Z40	X41	Y41	Z41	X42	Y42	Z42	X43	Y43	Z43	X44	Y44	Z44	X45	Y45	Z45	X46	Y46	Z46	X47	Y47	Z47	X48	Y48	Z48	X49	Y49	Z49	X50	Y50	Z50	X51	Y51	Z51	X52	Y52	Z52	X53	Y53	Z53	

529	5.28	782.5027465820312	1011.756713867188	259.8860473632812	951.9761962890625	999.0296630859375	299.5635986328125	870.1441650390625	1068.977294921875	283.2801818847656	786.3079833984375	1269.269165039062	525.8912963867188	876.0151977539062	1202.672119140625	269.0120849609375	851.2679443359375	1470.446166992188	323.9598693847656	793.2182006835938	1383.414184570312	495.0585021972656	806.2474365234375	1327.685668945312	242.4845886230469	952.7962036132812	1436.71337890625	333.0953674316406	990.156982421875	1445.480102539062	451.34814453125	1076.733154296875	1325.410034179688	454.4148254394531	1109.913330078125	1114.288818359375	480.3956604003906	1042.156616210938	1092.582397460938	401.1725769042969	1032.05517578125	882.5443115234375	577.4353637695312	1102.41015625	867.11328125	533.6766357421875	1115.7412109375	1006.957092285156	510.7806701660156	1012.201843261719	698.3645629882812	602.7730102539062	1091.155517578125	789.444091796875	572.3035888671875	1030.814208984375	802.3522338867188	607.4150390625	668.5864868164062	1428.224365234375	324.5868835449219	616.9076538085938	1362.400756835938	288.0943908691406	589.1747436523438	1108.379272460938	224.6399383544922	664.8547973632812	1080.270263671875	281.4822082519531	545.6096801757812	875.4554443359375	397.6415405273438	530.8368530273438	849.9717407226562	314.9187622070312	569.1903686523438	1025.359252929688	236.3435363769531	570.2141723632812	686.2522583007812	423.1163940429688	538.7864379882812	770.909912109375	426.3214721679688	516.9078369140625	763.21630859375	352.5762634277344	885.1507568359375	1664.259521484375	412.0209045410156	679.2886962890625	1662.57421875	474.5290832519531	776.4785766601562	1683.390014648438	551.8827514648438	775.5160522460938	1634.08837890625	334.6878356933594	1008.887817382812	945.9552001953125	430.0127258300781	688.948974609375	938.79443359375	300.0124206542969	671.6654052734375	959.0519409179688	425.185791015625	923.7454223632812	959.03759765625	517.70703125	932.3555297851562	514.530029296875	648.4236450195312	980.33984375	649.4480590820312	582.1178588867188	1080.62890625	178.81591796875	311.7569274902344	1023.259399414062	334.9779052734375	476.3698120117188	1041.643798828125	72.11820220947266	478.5079650878906	997.2250366210938	92.41727447509766	427.9911499023438	1102.880249023438	115.0873870849609	397.2370300292969	1014.152099609375	203.2669982910156	254.9517974853516	750.7593383789062	498.781494140625	442.358154296875	678.1295776367188	765.04833984375	402.4622192382812	857.0139770507812	29.47637557983398	390.6402282714844	772.676513671875	372.6369018554688	435.9022827148438	850.2999267578125	34.60382843017578	610.2387084960938	899.3572998046875	41.56611633300781	558.3998413085938	814.7354736328125	37.85428619384766	507.6852111816406	922.08642578125	33.06726455688477	358.5272216796875	
530	5.29	783.4205932617188	1011.931396484375	266.9617614746094	952.1744995117188	999.0709228515625	309.7825622558594	870.4429931640625	1069.203247070312	291.7143249511719	782.949951171875	1269.472412109375	533.0905151367188	876.0305786132812	1203.018188476562	277.6015625	850.4013061523438	1470.592895507812	332.137939453125	790.40771484375	1383.603637695312	502.4359741210938	806.4883422851562	1328.021606445312	250.0157928466797	951.839111328125	1436.922485351562	342.4555969238281	987.8222045898438	1445.607788085938	461.118408203125	1074.524780273438	1325.629272460938	464.8731689453125	1107.726684570312	1114.466186523438	490.5789794921875	1040.793334960938	1092.908081054688	410.6301879882812	1028.814086914062	882.5313720703125	586.2110595703125	1099.623291015625	867.1356201171875	543.2042236328125	1113.23095703125	1007.056457519531	520.7819213867188	1008.585693359375	698.2610473632812	610.785400390625	1087.886352539062	789.3662109375	581.4987182617188	1027.114868164062	802.214111328125	615.9295043945312	667.8320922851562	1428.4833984375	330.4150390625	616.565673828125	1362.675903320312	293.2235107421875	589.4226684570312	1108.460693359375	229.5929107666016	664.2125854492188	1080.279052734375	287.6615600585938	543.7266845703125	876.7518920898438	403.6996765136719	529.95947265625	850.5375366210938	321.0011596679688	569.204833984375	1025.370727539062	241.5413055419922	567.9508666992188	687.8020629882812	431.1211547851562	536.5326538085938	772.4744262695312	433.1864624023438	515.5857543945312	764.1144409179688	359.2561950683594	883.5078125	1664.387329101562	420.4718017578125	676.9581298828125	1662.978393554688	480.7428283691406	773.2039184570312	1683.723022460938	559.0752563476562	774.8212890625	1634.398559570312	341.6853332519531	1006.605224609375	946.3461303710938	441.4834289550781	689.1558227539062	938.9457397460938	305.4580078125	669.35009765625	959.146728515625	430.2834167480469	919.7103881835938	959.498291015625	527.3584594726562	922.6028442382812	518.262451171875	663.2286376953125	973.0146484375	651.81640625	596.3766479492188	1077.442626953125	169.15966796875	344.4071655273438	1016.8662109375	331.9486694335938	500.6430969238281	1032.366821289062	70.39485931396484	514.445068359375	989.7174072265625	88.67013549804688	461.6249694824219	1096.392700195312	109.3501815795898	433.3283386230469	1013.097595214844	191.4100341796875	284.2179565429688	750.0385131835938	498.4229125976562	444.4551696777344	676.595458984375	765.007080078125	406.6793212890625	857.0880126953125	29.57696914672852	390.7083435058594	772.50634765625	372.4469299316406	437.4564514160156	850.3914794921875	34.37077331542969	610.2845458984375	899.4752807617188	41.40969848632812	558.54541015625	814.7321166992188	37.78025054931641	507.7308959960938	922.158447265625	33.25382614135742	358.6038513183594	
531	5.3	784.31787109375	1011.978271484375	274.0972595214844	952.3040771484375	999.03076171875	320.014404296875	870.7300415039062	1069.344116210938	300.1311645507812	779.5556640625	1269.560424804688	540.2765502929688	876.0325927734375	1203.268920898438	286.2209777832031	849.4894409179688	1470.64404296875	340.32568359375	787.5606079101562	1383.68994140625	509.8123474121094	806.6748657226562	1328.2529296875	257.6104125976562	950.815185546875	1437.0361328125	351.8394470214844	985.404052734375	1445.610717773438	470.9070434570312	1072.231323242188	1325.734375	475.3687744140625	1105.488525390625	1114.5458984375	500.8246459960938	1039.537475585938	1093.1513671875	419.9544677734375	1025.534545898438	882.4107666015625	594.9677124023438	1096.834228515625	867.0742797851562	552.8048095703125	1110.674072265625	1007.063903808594	530.8524169921875	1004.990234375	698.035400390625	618.7625732421875	1084.617797851562	789.2110595703125	590.7581787109375	1023.377197265625	801.970458984375	624.4276733398438	667.048583984375	1428.637817382812	336.2526245117188	616.2256469726562	1362.833984375	298.3798828125	589.6503295898438	1108.404663085938	234.6338043212891	663.4928588867188	1080.10498046875	293.9835815429688	541.8076171875	877.8671875	409.7103576660156	529.0122680664062	851.0040283203125	327.0439453125	569.1958618164062	1025.261108398438	246.8050689697266	565.5673828125	689.1605224609375	438.91357421875	534.22119140625	773.8463134765625	439.927978515625	514.1776123046875	764.8786010742188	365.8308715820312	881.8094482421875	1664.39599609375	428.9354553222656	674.551513671875	1663.278442382812	486.9366455078125	769.8956298828125	1683.947387695312	566.2681274414062	774.0648803710938	1634.592895507812	348.7593078613281	1004.23876953125	946.633056640625	452.8984375	689.3580322265625	939.0408935546875	310.9910583496094	667.0596923828125	959.1725463867188	435.4386291503906	915.6089477539062	959.8629760742188	536.9334106445312	912.8231201171875	521.6880493164062	677.2031860351562	965.6478271484375	653.9284057617188	610.0403442382812	1073.064575195312	159.0526885986328	377.6273498535156	1009.784362792969	328.5325317382812	524.8682861328125	1021.121643066406	68.60675048828125	550.255615234375	980.5008544921875	84.85682678222656	495.1998901367188	1088.225341796875	103.2978820800781	469.7165222167969	1011.177429199219	179.1971740722656	314.1227111816406	749.3660278320312	498.0426940917969	446.7254943847656	675.3600463867188	764.5366821289062	410.6263122558594	857.1924438476562	29.69314765930176	390.7914428710938	772.3142700195312	372.2369384765625	439.1292724609375	850.4927978515625	34.15657806396484	610.3486328125	899.597412109375	41.22142028808594	558.7010498046875	814.766845703125	37.72055053710938	507.7900390625	922.2284545898438	33.44314956665039	358.6889343261719	
532	5.31	785.1566162109375	1011.899780273438	281.3216247558594	952.3452758789062	998.91650390625	330.2486267089844	870.9827270507812	1069.393432617188	308.5539245605469	776.1342163085938	1269.543823242188	547.4622192382812	876.0123291015625	1203.4189453125	294.8633117675781	848.5435180664062	1470.610229492188	348.5197143554688	784.6734008789062	1383.692138671875	517.1927490234375	806.8267211914062	1328.379272460938	265.2468872070312	949.7301635742188	1437.054443359375	361.2456359863281	982.9088134765625	1445.498046875	480.7079467773438	1069.8505859375	1325.731811523438	485.9012145996094	1103.18701171875	1114.532348632812	511.130126953125	1038.33203125	1093.301635742188	429.2154846191406	1022.215087890625	882.180419921875	603.7120361328125	1094.036376953125	866.9320068359375	562.4635009765625	1108.06298828125	1006.982360839844	540.9827880859375	1001.42822265625	697.6846313476562	626.7139282226562	1081.363037109375	788.97900390625	600.0658569335938	1019.609008789062	801.6165161132812	632.9142456054688	666.2401733398438	1428.693115234375	342.0906982421875	615.8925170898438	1362.880859375	303.5674438476562	589.8609619140625	1108.223388671875	239.7693939208984	662.74365234375	1079.801391601562	300.3916015625	539.8533325195312	878.8060913085938	415.6797180175781	527.99072265625	851.3759765625	333.0534057617188	569.155517578125	1025.035034179688	252.1512603759766	563.0761108398438	690.3224487304688	446.4973449707031	531.858642578125	775.0283813476562	446.5603332519531	512.679931640625	765.5159301757812	372.3065795898438	880.052734375	1664.296997070312	437.4196472167969	672.0618286132812	1663.469848632812	493.1176452636719	766.5658569335938	1684.054809570312	573.4758911132812	773.2301025390625	1634.675048828125	355.9444580078125	1001.787292480469	946.8173828125	464.2388610839844	689.522705078125	939.0826416015625	316.6386413574219	664.7949829101562	959.1292114257812	440.6742553710938	911.4655151367188	960.138916015625	546.4420166015625	903.0533447265625	524.7828979492188	690.363525390625	958.2816162109375	655.7618408203125	623.1083984375	1067.437744140625	148.6323699951172	411.3940124511719	1001.996948242188	324.8180541992188	549.031494140625	1007.833251953125	66.87091064453125	585.7779541015625	969.5292358398438	81.08579254150391	528.5482788085938	1078.296264648438	97.03928375244141	506.3288269042969	1008.359558105469	166.781982421875	344.6434326171875	748.7154541015625	497.6378784179688	449.1773071289062	674.4468994140625	763.6642456054688	414.3335876464844	857.3193359375	29.83264541625977	390.8908996582031	772.057861328125	372.0119934082031	440.9129028320312	850.5997924804688	33.96309661865234	610.4376220703125	899.7171630859375	41.00735092163086	558.8623657226562	814.8451538085938	37.66708755493164	507.8715209960938	922.3145751953125	33.63226699829102	358.7821044921875	
